<svg xmlns="http://www.w3.org/2000/svg" viewBox="0 0 150 150">
<!-- SVG created with Arrow, by QuiverAI (https://quiver.ai) -->
  <style type="text/css">.cls-0 {fill:url(#SVGID_1_);}</style>
  <linearGradient id="SVGID_1_" x1="11" x2="138.8" y1="76.5" y2="76.5" gradientUnits="userSpaceOnUse">
    <stop stop-color="#C38CEA" offset="0"/>
    <stop stop-color="#9CC7ED" offset=".5377"/>
    <stop stop-color="#AAECBE" offset="1"/>
  </linearGradient>
  <path class="cls-0" d="m137.6 53.9c-3.6-2.2-4.9-3.1-5.7-5.9-1.9-6.2-7.4-8.8-14.5-10l-1.8-9.1c-0.3-1.6-2-2.3-3.3-1.2-6.4 5.2-9 10.3-10.8 14.1-1.5 1.2-5 4.5-6.5 10.4-0.4 1.7-0.7 3.3-0.9 4.9-1.3 7.8-2.5 13.9-10.9 17.2-3 1.2-5.8 2-8.9 2.6-10 1.9-17.5 5.9-22.4 12-5.6 6.9-7.7 15.6-5.1 26.7-2.2-2.5-4-6.6-4-11.6 0-10.7 8.1-18.7 13.3-22.9 0.9-0.7 1.2-1.5 0.9-2.6-0.9-3.5-0.9-8.5 2.9-12.1 3.5-3.1 7.1-3.3 11-3.2h2.7c9.5 0 13.5-4.6 15.4-9.3 1.1-2.5 2.9-8.9 2.1-12.5-0.5-1.3-1.6-1.9-2.6-2.1-1.7-0.5-2.9-0.8-3.4-0.9-2.3-0.5-9-2.6-11.5-4.1-1-0.7-1.5-1.3-2.3-3.5-2.4-6.2-10.8-10.3-19.2-10.8-10.3-0.6-19.5 1.3-25.6 7.8-1 1.1-1.9 2.3-3.1 3.8-1.3 1.5-3 3.5-6 6.8-1.3 1.6-4 4.9-3.6 8 0.3 3.7 2.7 7 6 9.4 4.3 2.7 5.6 4 7.8 7.2 2.8 3.5 5.2 5.9 9 5.9s9.2-2.1 9.5-12.4v-2.6c-0.3-5.3-2-10-2-14.6 0-4.4 2.5-7.4 2.7-7.7 0.6-0.7 0.6-1.8-0.2-2.6-0.6-0.6-1.8-0.5-2.6 0.3-0.4 0.5-3.6 4.3-3.6 9.6-0.1 5.2 2.2 10.5 2.2 15.7s-2.2 11-6 10.8c-3.1 0-4.2-1.9-6-4.3-2.5-3.5-4.6-5.5-8.7-8.1-2.1-1.4-4.3-3.9-4.6-7.2 0-2.2 1.1-4 2.6-5.7 5.6-6.2 6.9-8.2 9.4-10.7 5.7-5.3 13.6-6.5 20.7-6.1 7.1 0.1 15.1 2.8 17.6 7.7 1.3 2.9 1.9 4.5 4 5.8 2.3 1.5 6.2 2.6 9.9 4.1l0.1 0.1h-0.1c-0.1 0-0.5 0.4 0 2.4 0.9 2.7 3.6 4 4.9 4.5-0.6 2.2-1.8 4.9-3.9 7.6-2.4 2.3-5.1 3.9-10.4 3.9h-2.6c-4.1 0-8.9 0.6-12.2 4-4.8 4.4-5.2 10.4-4 15.4-4.3 3.2-12.4 10.8-13.8 21.2-1.2 10.4 3.5 17.8 10 21.6 1.5 0.9 3.5-0.5 2.8-2.1-4.2-9.5-4.2-19 1.2-26.6 4.5-6.4 11-10.3 19.8-12 3.3-0.6 6.6-1.3 9.7-2.3 11.8-4.1 13.4-12.6 14.6-20.2 0.3-1.6 0.5-3.3 0.9-4.9 1.4-5.5 4.6-8.5 5.4-9.1 0.5-0.4 0.7-0.8 0.9-1.5v0.1c1.3-3 3.1-6.9 7.7-10.9 0.6 2.9 1.6 7.7 2.1 8.3 0.3 0.5 0.8 0.7 1.4 0.8 6.5 0.9 10.8 2.7 12.3 6.8 1.1 3.9 3.3 5.6 6.8 8.6-0.7 3.4-1 7-4 8.9-2.1 1.4-5.1 1.1-7.1 1.8-3 1-5.9 3.7-5.9 8.6 0 6.7 5.3 13 5.4 22 0 10-3.9 17.2-10.1 21.4-1.9 1.3 0.1 4.2 2.1 2.8 7.1-4.6 11.8-11.7 11.8-23.3-0.2-9.8-5.3-17.3-5.5-22.4-0.2-2.9 1.2-5.8 4.6-6 2-0.3 4-0.3 6.1-1.5 4.4-2.5 5.1-6.8 6-11.4 0.4-1.9 0-2.9-0.9-3.6zm-1.5 19c-1 0-6 2.7-5.7 7.2v-0.1c-0.8 3.9 1.1 7.9 1.7 11 1.3 6 1.5 13.4-2 20.6-4 6.5-11.7 13.4-25.8 14.9-7.7 0.8-15.3 0-22.2-2.5-0.7-0.2-1.6-0.6-2.7-1.1 4.9-2.9 12.6-8.5 12.6-16.4-0.1-5.1-4-9.6-9.4-9.6-2.2 0.1-4.7 0.7-6.8 3.4-1.9-2.3-4.3-3.3-7.4-3.3-4.3-0.1-8.8 3.4-8.8 9.4 0.2 7 7.5 12.5 12 16.2-5.6 2.3-13 4.3-22.6 4-14.9-0.2-25-5.7-30.2-14.6-5.8-9.2-5.8-23.1-0.2-37.6 1.4-3.4 2.9-6.8 4.7-10 1.2-2.4-1.2-3.8-2.8-2-1.1 2.5-2.5 5.1-3.6 7.7-1.3 3.7-3.3 8.3-4.5 15.9-1.5 9.4-0.9 18.4 3.1 26 5.9 10.5 17 18.1 34.4 18.5 10.7 0.3 19-1.9 25.9-5.6 5.6 2.5 13.8 5.5 23.7 5.5 11.1 0 24.9-3 32.4-13.3 3.6-5.1 5.1-12.2 5-18.5-0.3-5.6-1.5-10-2.4-13.2-1.6-7 2.9-8.8 3.1-9 2-0.9 1-3.6-1.5-3.5zm-60.5 48c-4.5-2.5-12.2-7.9-12.4-14.3 0-3.2 2.2-6 5.3-6 3 0 4.6 1.8 5.5 3.8 0.6 1.2 2.6 1.7 3.4 0.2 1.2-2 2.7-3.8 5.2-4 3.4-0.1 6.2 2.4 5.8 6.5-0.9 5.9-7.9 10.8-12.8 13.8z"/>
</svg>